<svg width="12526" height="2953" viewBox="0 0 12526 2953" fill="none" xmlns="http://www.w3.org/2000/svg">
<path d="M4869.72 60.6133C5597.22 66.6758 6310.17 189.543 7034.64 242.489C7762.14 295.233 8477.52 194.595 9199.77 114.368C9758.13 474.481 10208.8 1155.3 10859.3 1284.84C11251.7 1363.04 11369.3 1763.37 11584.6 2065.29C11831.9 2412.06 12199.1 2671.94 12519 2950.41H10C819.953 2468.78 1629.91 1987.15 2439.86 1505.51C2840.99 1265.64 3224.75 1049.61 3563.65 722.641C3726.33 565.823 3873.64 392.839 4076.13 285.331C4322.47 154.582 4604.99 143.266 4869.72 60.6133Z" stroke="#4A3AFF" stroke-width="5" stroke-miterlimit="10"/>
<path d="M513.393 2651.13H12175.5" stroke="#4A3AFF" stroke-width="5" stroke-miterlimit="10"/>
<path d="M952.925 2389.63H11875" stroke="#4A3AFF" stroke-width="5" stroke-miterlimit="10"/>
<path d="M1339.92 2159.46C2272.73 2159.46 3173.42 2196.44 4100.18 2298.09C4925.49 2388.62 5665.32 2302.33 6475.27 2148.34C7259.76 1999 8054.96 2027.09 8850.37 1995.77C9771.81 1957.26 10694.9 1992.67 11610.6 2101.66" stroke="#4A3AFF" stroke-width="5" stroke-miterlimit="10"/>
<path d="M1683.46 1955.35C2120.37 1955.35 2560.91 1931.71 2992.36 2012.34C3431.49 2094.39 3853.03 2247.97 4287.92 2347.6C5160.52 2547.46 5744.34 2265.15 6529.64 1911.5C7224.4 1598.88 7914.52 1621.11 8659.2 1553.21C9632.03 1464.49 10427.2 1463.48 11376.2 1732.25" stroke="#4A3AFF" stroke-width="5" stroke-miterlimit="10"/>
<path d="M1990.42 1772.67C2441.68 1772.67 2851.5 1785.8 3288.01 1918.78C3679.85 2038.41 4057.34 2204.93 4456.46 2300.92C5297.13 2503 5872.46 2076.4 6578.34 1688.4C7221.37 1334.75 7879.56 1371.94 8589.28 1291.51C9510.78 1187.23 10272.8 1124.38 11166.3 1427.71" stroke="#4A3AFF" stroke-width="5" stroke-miterlimit="10"/>
<path d="M2266.27 1608.78C3080.87 1613.02 3811.2 1916.75 4607.01 2030.12C5357.95 2136.82 5945.81 1796.11 6621.99 1529.76C7246.83 1283.83 7866.02 1303.02 8525.42 1249.07C9365.28 1179.96 10146.9 1107.61 10977.9 1299.59" stroke="#4A3AFF" stroke-width="5" stroke-miterlimit="10"/>
<path d="M2515.84 1460.25C3265.37 1480.46 3996.51 1656.07 4744.22 1688.6C5409.28 1717.5 6018.36 1539.47 6661.8 1405.69C7258.96 1282.42 7861.57 1306.06 8468.03 1279.38C9250.09 1245.23 10027.1 1194.51 10807.8 1277.36" stroke="#4A3AFF" stroke-width="5" stroke-miterlimit="10"/>
<path d="M2741.98 1323.43C4071.28 1340.81 5369.07 1384.06 6697.37 1303.22C8004.44 1225.22 9344.67 1244.82 10653 1270.69" stroke="#4A3AFF" stroke-width="5" stroke-miterlimit="10"/>
<path d="M2948.3 1203.8C5469.5 1202.59 7990.7 1202.59 10511.9 1203.8" stroke="#4A3AFF" stroke-width="5" stroke-miterlimit="10"/>
<path d="M3137.45 1086.39C4345.11 1052.04 5552.15 1039.71 6760.21 1023.54C7968.27 1007.38 9173.9 1091.24 10382.8 1091.24" stroke="#4A3AFF" stroke-width="5" stroke-miterlimit="10"/>
<path d="M3311.24 954.43C4468.98 861.674 5626.92 833.18 6787.09 795.188C7959.18 756.792 9096.1 988.582 10262.9 987.37" stroke="#4A3AFF" stroke-width="5" stroke-miterlimit="10"/>
<path d="M3471.7 811.561C4580.74 661.009 5695.83 623.825 6813.16 562.796C7963.82 499.948 9015.87 873.803 10154.6 891.991" stroke="#4A3AFF" stroke-width="5" stroke-miterlimit="10"/>
<path d="M3620.03 666.866C4679.56 472.865 5762.12 430.63 6836.6 354.444C7347.67 318.271 7821.96 324.131 8324.34 444.776C8903.31 584.011 9454.6 766.493 10053.2 803.879" stroke="#4A3AFF" stroke-width="5" stroke-miterlimit="10"/>
<path d="M3757.65 529.854C4769.69 312.21 5826.79 275.026 6858.43 188.332C7336.36 147.915 7771.24 146.905 8236.64 271.793C8816.22 427.398 9357.6 650.902 9959.2 719.004" stroke="#4A3AFF" stroke-width="5" stroke-miterlimit="10"/>
<path d="M3885.77 410.423C4853.15 190.96 5889.03 158.626 6878.84 73.1449C7310.89 35.7594 7727.59 25.8573 8151.97 137.61C8735.18 291.598 9270.5 547.638 9872.31 637.97" stroke="#4A3AFF" stroke-width="5" stroke-miterlimit="10"/>
<path d="M4005.2 319.482C4943.28 126.088 5941.77 100.626 6897.63 23.0256C7948.47 -62.4559 8778.63 371.418 9790.06 555.516" stroke="#4A3AFF" stroke-width="5" stroke-miterlimit="10"/>
<path d="M4116.96 255.624C5030.78 97.3922 5989.06 82.2361 6915.42 22.8234C7913.91 -40.4289 8747.31 303.114 9713.67 479.331" stroke="#4A3AFF" stroke-width="5" stroke-miterlimit="10"/>
<path d="M4221.63 212.581C5112.42 91.3304 6033.32 91.3306 6931.98 52.9346C7878.54 12.5178 8716.79 265.123 9642.33 413.857" stroke="#4A3AFF" stroke-width="5" stroke-miterlimit="10"/>
<path d="M4320.05 184.492C5189.01 96.9896 6074.95 114.975 6947.14 98.2017C7845.4 81.0246 8687.08 247.138 9574.23 358.688" stroke="#4A3AFF" stroke-width="5" stroke-miterlimit="10"/>
<path d="M4412.4 166.304C6112.74 51.7223 7819.54 170.346 9511.99 312.815" stroke="#4A3AFF" stroke-width="5" stroke-miterlimit="10"/>
<path d="M4499.7 153.572C6142.44 88.703 7810.65 207.528 9452.38 274.822" stroke="#4A3AFF" stroke-width="5" stroke-miterlimit="10"/>
<path d="M4581.95 142.454C6183.67 115.375 7791.65 241.88 9396.2 240.264" stroke="#4A3AFF" stroke-width="5" stroke-miterlimit="10"/>
<path d="M4659.75 129.931C5443.84 128.92 6219.44 214.2 7001.3 257.648C7783.16 301.096 8564.42 239.258 9343.05 209.35" stroke="#4A3AFF" stroke-width="5" stroke-miterlimit="10"/>
<path d="M4733.31 113.156C5498.2 118.41 6251.37 218.846 7013.02 268.559C7774.67 318.272 8534.51 231.78 9292.73 178.834" stroke="#4A3AFF" stroke-width="5" stroke-miterlimit="10"/>
<path d="M4803.23 90.3203C5549.53 97.5953 6281.28 210.156 7024.14 263.102C7767 316.048 8505.41 217.229 9245.04 147.308" stroke="#4A3AFF" stroke-width="5" stroke-miterlimit="10"/>
<path d="M9033.05 131.344C9356.39 326.759 9582.72 549.456 9839.97 824.694C9936.97 928.565 10040.2 1057.7 10156.2 1140.75C10334.1 1268.07 10325.6 1214.92 10535.5 1234.12C10915.1 1268.47 10984.4 1612.82 11149.7 1927.26C11367.7 2342.34 11704.6 2629.91 12038.8 2950.42" stroke="#4A3AFF" stroke-width="5" stroke-miterlimit="10"/>
<path d="M8866.54 150.539C9170.67 316.046 9342.64 460.94 9550.79 743.655C9642.13 867.533 9733.88 1021.12 9852.3 1121.96C10025.9 1269.68 10026.1 1177.53 10211.6 1209.46C10392.3 1240.38 10334.3 1133.07 10498.6 1295.75C10655.4 1451.15 10706.1 1746.19 10796 1942.42C10983.4 2350.63 11253.1 2624.45 11556.7 2950.62" stroke="#4A3AFF" stroke-width="5" stroke-miterlimit="10"/>
<path d="M8699.61 169.941C9037.09 328.375 9140.16 415.474 9338.2 752.954C9416.98 904.525 9510.82 1047.78 9618.29 1180.56C9701.68 1287.4 9791.41 1295.01 9887.46 1203.4C9987.56 1104.65 10077.3 1116.57 10156.6 1239.17C10265.8 1490.09 10359.6 1747.42 10437.5 2009.71C10584 2386.2 10823.3 2642.84 11076.1 2950.41" stroke="#4A3AFF" stroke-width="5" stroke-miterlimit="10"/>
<path d="M8533.5 189.141C8634.15 224.833 8737.84 251.281 8843.29 268.156C8966.6 417.703 9060.71 589.077 9120.76 773.366C9183.5 939.919 9270.08 1096.48 9377.81 1238.16C9450.83 1272.92 9512.93 1263.42 9564.13 1209.66C9614.78 1157.93 9676.82 1145.27 9750.25 1171.67C9873.78 1393.78 9960.58 1634.4 10007.3 1884.22C10140.5 2312.44 10338.5 2590.51 10594.6 2949.41" stroke="#4A3AFF" stroke-width="5" stroke-miterlimit="10"/>
<path d="M8366.98 207.531C8459.47 223.311 8553.58 227.317 8647.07 219.454C8762.65 403.273 8846.92 604.999 8896.44 816.41C8935.65 917.857 8974.72 1019.3 9013.65 1120.75C9055.68 1276.76 9131.2 1311.85 9240.19 1226.04C9321.02 1141.7 9377.54 1150.79 9409.74 1253.32C9523.98 1397.17 9585.46 1575.84 9583.93 1759.54C9708.82 2224.33 9868.26 2544.83 10113.4 2950.42" stroke="#4A3AFF" stroke-width="5" stroke-miterlimit="10"/>
<path d="M8200.46 224.301C8282.4 227.279 8363.05 203.283 8430.03 155.996C8560.98 437.903 8571.49 858.44 8730.53 1112.26C8995.06 1533 8846.53 1033.24 9008.6 1205.01C9239.58 1449.74 9199.97 1929.89 9297.98 2227.15C9380.84 2478.75 9515.22 2714.18 9632.23 2950.41" stroke="#4A3AFF" stroke-width="5" stroke-miterlimit="10"/>
<path d="M8033.95 238.647C8107.95 210.182 8173.85 164.045 8225.93 104.262C8291.2 326.554 8326.97 1045.16 8475.91 1202.59C8569.07 1301.61 8605.44 1202.59 8670.31 1275.34C8814.6 1437.01 8834.81 1984.65 8872.4 2142.48C8938.07 2421.36 9048.61 2683.86 9151.68 2950.82" stroke="#4A3AFF" stroke-width="5" stroke-miterlimit="10"/>
<path d="M7867.43 250.166C7919.57 189.541 7968.47 128.916 8015.96 64.0469C8068.1 374.246 8020.01 878.041 8177.63 1124.79C8151.49 1222.32 8171.7 1272.71 8238.26 1275.94C8268.09 1282.58 8298.45 1286.5 8328.99 1287.67C8434.48 1501.07 8419.73 1813.08 8454.08 2041.64C8501.37 2356.08 8585.23 2645.47 8669.91 2951.02" stroke="#4A3AFF" stroke-width="5" stroke-miterlimit="10"/>
<path d="M7700.91 258.051C7736.32 181.363 7766.5 102.371 7791.25 21.6133C7892.29 1023.95 8019.4 1946.67 8188.95 2950.42" stroke="#4A3AFF" stroke-width="5" stroke-miterlimit="10"/>
<path d="M7534.2 262.699C7547.67 175.803 7558.45 88.5697 7566.53 1C7601.69 987.978 7648.57 1964.25 7707.99 2951.43" stroke="#4A3AFF" stroke-width="5" stroke-miterlimit="10"/>
<path d="M7367.68 259.668C7356.77 174.119 7348.08 88.4355 7341.61 2.61719C7312.91 986.564 7274.72 1966.67 7226.83 2950.42" stroke="#4A3AFF" stroke-width="5" stroke-miterlimit="10"/>
<path d="M7201.16 252.596C7167.23 175.294 7139.06 95.5911 7116.89 14.1367C7023.53 1000.31 6901.06 1969.91 6745.66 2950.42" stroke="#4A3AFF" stroke-width="5" stroke-miterlimit="10"/>
<path d="M7034.64 242.49C6981.16 176.5 6933.43 106.052 6891.97 31.918C6732.77 1014.82 6523.34 1988.93 6264.5 2950.42" stroke="#4A3AFF" stroke-width="5" stroke-miterlimit="10"/>
<path d="M6868.13 227.938C6787.46 185.8 6722.18 119.243 6681.6 37.7773C6512.05 622.002 6433.04 1219.56 6250.36 1802.58C6127.49 2194.82 5928.64 2563.42 5783.34 2950.41" stroke="#4A3AFF" stroke-width="5" stroke-miterlimit="10"/>
<path d="M6701.61 211.57C6654.41 204.922 6609.45 187.239 6570.37 159.957C6531.29 132.675 6499.19 96.5627 6476.69 54.5508C6193.77 622.811 6110.92 1353.95 5910.85 1964.85C5775.86 2376.9 5788.59 2102.67 5627.93 2321.73C5491.12 2508.05 5400.79 2744.29 5300.96 2950.41" stroke="#4A3AFF" stroke-width="5" stroke-miterlimit="10"/>
<path d="M6535.09 193.386C6483.57 193.331 6432.6 182.724 6385.33 162.218C6338.07 141.713 6295.5 111.743 6260.26 74.1562C5904.19 673.942 5813.45 1464.9 5567.31 2117.83C5369.47 2643.25 5494.56 2226.75 5220.94 2330.22C5089.99 2379.73 4879.42 2851.4 4820.81 2950.42" stroke="#4A3AFF" stroke-width="5" stroke-miterlimit="10"/>
<path d="M6368.57 173.981C6314.76 184.21 6259.32 182.028 6206.48 167.6C6153.63 153.172 6104.78 126.879 6063.63 90.7227C5904.79 223.29 5813.79 397.082 5790.61 612.1C5653.2 1008.59 5487.49 1387.09 5354.31 1785.4C5302.04 1977.38 5240.88 2166.6 5170.82 2353.05C5092.28 2478.21 5008.01 2483.4 4918.01 2368.61C4783.29 2296.13 4692.22 2345.31 4644.8 2516.14L4340.05 2950.41" stroke="#4A3AFF" stroke-width="5" stroke-miterlimit="10"/>
<path d="M6202.06 154.177C6146.76 171.684 6088.21 176.433 6030.81 168.068C5973.4 159.703 5918.65 138.441 5870.64 105.879C5701.97 189.003 5602.54 329.586 5572.36 527.628C5390.49 954.834 5180.32 1369.51 5030.38 1808.44C4986.5 2027.23 4896 2234.01 4765.04 2414.69C4715.67 2420.93 4665.54 2416.71 4617.91 2402.29C4570.27 2387.88 4526.21 2363.6 4488.59 2331.03C4217.39 2356.89 4019.75 2751.76 3858.89 2950.01" stroke="#4A3AFF" stroke-width="5" stroke-miterlimit="10"/>
<path d="M6035.34 134.777C5860.33 212.984 5755.05 87.4893 5598.43 158.421C5428.88 235.415 5361.79 468.822 5284.39 626.447C5089.79 1019.9 4880.22 1390.93 4707.04 1794.09C4633.48 1964.65 4575.08 2313.44 4351.98 2355.88C4261.04 2373.06 4147.87 2280.5 4054.1 2297.48C3805.34 2342.95 3538.79 2775.81 3378.13 2950.41" stroke="#4A3AFF" stroke-width="5" stroke-miterlimit="10"/>
<path d="M5868.82 115.984C5697.65 201.668 5569.53 102.849 5405.64 156.401C5185.17 228.747 5091.61 511.463 4990.36 703.645C4798.99 1065.78 4568.41 1396.19 4382.69 1762.36C4295.19 1935.14 4202.84 2170.57 4007.63 2235.64C3903.96 2270.2 3800.29 2235.64 3694.8 2263.94C3388.04 2347.8 3123.1 2730.14 2896.77 2951.02" stroke="#4A3AFF" stroke-width="5" stroke-miterlimit="10"/>
<path d="M5702.3 99.0078C5501.63 205.102 5320.97 76.1723 5123.54 176.002C4965.51 256.835 4860.83 485.796 4776.96 628.064C4556.49 1002.12 4300.45 1347.89 4058.96 1708.2C3788.97 2111.16 3634.58 2046.09 3255.87 2242.31C2945.68 2402.56 2675.49 2721.86 2415.61 2949.61" stroke="#4A3AFF" stroke-width="5" stroke-miterlimit="10"/>
<path d="M5535.79 84.2578C5333.7 181.864 5124.55 80.8219 4931.36 167.718C4714.72 265.122 4604.79 526.619 4481.52 710.92C4257.4 1045.17 3993.89 1346.68 3735.22 1655.26C3489.89 1947.88 3215.86 1995.77 2902.23 2182.5C2558.69 2387 2246.26 2700.24 1934.45 2950.42" stroke="#4A3AFF" stroke-width="5" stroke-miterlimit="10"/>
<path d="M5369.27 72.5352C5164.96 135.787 4934.18 92.7437 4741.39 170.546C4523.14 259.665 4405.93 489.435 4272.15 666.864C4014.09 1010.41 3729.76 1306.46 3411.28 1594.43C3129.98 1848.65 2768.65 1987.08 2460.07 2207.35C2120.97 2449.85 1788.74 2702.86 1453.28 2950.41" stroke="#4A3AFF" stroke-width="5" stroke-miterlimit="10"/>
<path d="M5203.56 64.25C4990.97 131.948 4758.98 104.667 4554.26 183.682C4299.23 283.309 4137.77 558.144 3973.47 758.005C3723.09 1063.15 3411.28 1321.82 3088.35 1548.96C2399.44 2033.96 1670.32 2474.1 973.134 2950.41" stroke="#4A3AFF" stroke-width="5" stroke-miterlimit="10"/>
<path d="M5036.24 60.6133C4817.78 130.13 4578.31 121.238 4367.14 203.688C4107.46 305.741 3948.22 537.531 3766.74 734.968C3472.71 1054.66 3129.17 1284.03 2763.6 1514.61C2005.65 1992.47 1248.17 2471.07 491.165 2950.41" stroke="#4A3AFF" stroke-width="5" stroke-miterlimit="10"/>
</svg>
