<svg width="5964" height="6346" viewBox="0 0 5964 6346" fill="none" xmlns="http://www.w3.org/2000/svg">
<path d="M4.26172 120.692C1988.53 58.8452 3974.98 43.4957 5959.92 4C5957.05 2116.42 5957.05 4228.85 5959.92 6341.27C3974.65 6339.12 1989.37 6343.69 4.26172 6341.27C5.33025 4267.56 5.33025 2194.04 4.26172 120.692Z" stroke="#4A3AFF" stroke-width="7" stroke-miterlimit="10"/>
<path d="M4.26172 5775.68C505.263 5768.77 959.782 5479.46 1464.5 5516.17C1993.25 5554.95 2359.45 6098.91 2900.86 6106.99C3442.26 6115.07 3982.07 6012.02 4523.73 5999.28C4759.43 5993.53 4974.37 5982.22 5203.4 5916.34C5458.16 5843.18 5693.27 5768.95 5959.92 5765.09" stroke="#4A3AFF" stroke-width="7" stroke-miterlimit="10"/>
<path d="M4.09766 5209.81C296.904 5161.79 470.681 4964.31 684.949 4765.67C835.275 4626.53 1054.61 4448.62 1265.5 4532.28C1607.99 4668.54 1849.09 5141.32 2057.87 5433.77C2230.13 5675.15 2455.62 6060.41 2764.12 6104.84C3068.48 6148.65 3435.6 6035.9 3735.41 5986.62C4098.15 5926.93 4462.24 5856.02 4828.77 5825.95C5072.48 5805.93 5231.83 5778.28 5407.89 5586.91C5583.94 5395.53 5694.71 5230.01 5959.93 5188.72" stroke="#4A3AFF" stroke-width="7" stroke-miterlimit="10"/>
<path d="M4.09766 4644.4C312.257 4589.28 452.544 4337.5 639.818 4099.18C768.548 3935.36 975.309 3717.68 1197.09 3812.47C1368.84 3885.99 1496.72 4092.44 1598.46 4245.04C1743.81 4463.16 1869.92 4695.2 2002.87 4921.76C2162.05 5192.85 2383.58 5683.85 2718.31 5734.21C3040.81 5782.68 3439.23 5644.45 3754.05 5583.05C4144.63 5506.21 4537.74 5411.33 4934.3 5376.59C5187.38 5354.33 5332.56 5330.1 5476.56 5091.24C5615.07 4861.53 5680.62 4660.37 5960.1 4612.53" stroke="#4A3AFF" stroke-width="7" stroke-miterlimit="10"/>
<path d="M4.09766 4078.97C289.818 4047.56 495.06 3894.96 735.395 3742.36C909.594 3632.04 1139.13 3505.66 1348.17 3569.66C1675.73 3670.1 1919.78 4088.04 2128.56 4347.18C2307.32 4569.08 2527.58 4884.95 2824.26 4909.64C3120.95 4934.32 3452.14 4809.19 3735.33 4734.51C4069.3 4646.36 4406.23 4538.47 4749.39 4499.06C4978.51 4472.85 5154.31 4459.21 5351.88 4320.97C5556.02 4177.89 5707.7 4059.49 5960.35 4036.33" stroke="#4A3AFF" stroke-width="7" stroke-miterlimit="10"/>
<path d="M4.26172 3513.84C517.663 3522.81 1023.47 3364.47 1537.38 3404.06C2065.04 3444.63 2408.63 4048.56 2953.83 4028.63C3504.1 4008.52 3990.25 3643.63 4530.14 3560.6C4752 3526.49 4980.7 3543.28 5205 3516.17C5458.08 3485.56 5705.25 3455.76 5960.43 3460.25" stroke="#4A3AFF" stroke-width="7" stroke-miterlimit="10"/>
<path d="M4.26172 2948.05C291.669 2940.6 578.401 2948.68 865.724 2956.58C1090.87 2962.77 1321.26 2944.19 1545.06 2969.15C2056.27 3026.32 2551.87 3307.1 3068.56 3306.65C3573.52 3306.65 4050.65 2984.85 4546.17 2904.97C5004.74 2830.91 5496.63 2892.04 5959.75 2884.41" stroke="#4A3AFF" stroke-width="7" stroke-miterlimit="10"/>
<path d="M4.16406 2382.63C461.552 2392.96 886.547 2613.32 1346.55 2581.46C2112.18 2528.41 2854.02 2243.86 3620.67 2209.03C4066.41 2188.74 4514.1 2226.98 4959.85 2231.29C5297.95 2234.7 5623.83 2306.33 5960.08 2308.22" stroke="#4A3AFF" stroke-width="7" stroke-miterlimit="10"/>
<path d="M4 1817.31C426.801 1849.9 715.136 2275.82 1153.8 2188.39C1715.28 2076.64 2263.35 1805.55 2796.33 1595.33C3075.3 1485.28 3354.44 1373.88 3637.97 1277.3C3795.21 1223.44 3966.96 1154.05 4134.16 1148.04C4566.41 1132.51 4913.71 1498.11 5328.92 1570.82C5459.08 1593.71 5597.34 1564.27 5708.53 1638.06C5721.35 1647.03 5716.96 1685.9 5733.83 1699.72C5788.16 1742.72 5899.51 1733.65 5959.58 1732.13" stroke="#4A3AFF" stroke-width="7" stroke-miterlimit="10"/>
<path d="M4 1251.8C430.344 1282.86 752.929 1669.56 1192.77 1586.26C1724.22 1485.64 2243.02 1230.08 2747.57 1033.59C3134.01 883.058 3586.84 642.313 4005.68 630.105C4430.93 617.628 4779.58 960.703 5191.84 1023.09C5332.88 1044.36 5478.65 1019.32 5612.61 1079.28C5734.51 1134.04 5820.22 1153.51 5960.25 1156.03" stroke="#4A3AFF" stroke-width="7" stroke-miterlimit="10"/>
<path d="M4.16406 686.199C476.568 687.186 933.112 856.749 1407.03 817.522C2084.51 761.779 2723.02 405.689 3405.3 395.636C3833.08 388.993 4244.75 536.384 4670.67 549.849C5098.62 563.403 5531.12 586.921 5959.57 580.368" stroke="#4A3AFF" stroke-width="7" stroke-miterlimit="10"/>
<path d="M5408.81 14.6797C5424.25 580.187 5748.18 1063.02 5725.66 1635.71C5704.9 2163.07 5456.47 2645.99 5455.29 3177.57C5453.94 3739.58 5587.06 4290.63 5605.95 4850.84C5623.25 5367.7 5415.14 5829.26 5409.23 6340.91" stroke="#4A3AFF" stroke-width="7" stroke-miterlimit="10"/>
<path d="M4862.66 25.0117C4938.58 379.127 5191.15 605.15 5409.64 866.361C5568.65 1056.39 5743.02 1286.09 5690.29 1556.64C5576.16 2141.27 5002.02 2574.46 4987.26 3185.3C4979.49 3507.28 5086.29 3849.55 5158 4158.78C5240.08 4512.8 5339.11 4870.06 5377.33 5233.51C5402.13 5471.83 5360.96 5642.2 5195.03 5807.37C5023.87 5977.92 4893.62 6076.66 4861.14 6341.19" stroke="#4A3AFF" stroke-width="7" stroke-miterlimit="10"/>
<path d="M4314.95 36.6758C4444.61 620.136 5455.81 858.097 5321.34 1515.52C5194.04 2137.94 4459.96 2547.8 4459.88 3206.12C4459.88 3546.68 4578.48 3906.27 4657.7 4232.29C4749.22 4609.29 4861.34 4989.98 4905.79 5377.13C4932.7 5611.59 4897.78 5782.77 4695.74 5900.72C4488.14 6021.81 4351.9 6062.92 4313.77 6340.55" stroke="#4A3AFF" stroke-width="7" stroke-miterlimit="10"/>
<path d="M3771.34 45.9219C3930.18 592.13 5003.55 653.797 4851.12 1319.93C4756.21 1735.17 4461.38 2112.81 4249.98 2466.65C4081.27 2749.67 3863.03 3066.99 3849.62 3413.65C3822.54 4117.03 3961.14 4832.72 3984.59 5535.92C3989.65 5688.52 4014.62 5878.72 3907.24 5997.48C3799.85 6116.24 3777.16 6150.08 3768.64 6341" stroke="#4A3AFF" stroke-width="7" stroke-miterlimit="10"/>
<path d="M3230.53 53.1055C3427.59 558.83 4563.89 414.491 4389.27 1108.63C4262.73 1610.85 3936.35 2074.3 3693.82 2517.91C3504.77 2863.95 3272.79 3234.22 3234.24 3641.11C3169.11 4329.78 3072.27 5019.69 3028.24 5710.15C3020.22 5836.63 2990.95 6024.32 3098.68 6102.6C3117.15 6115.97 3149.29 6087.43 3172.66 6107.98C3225.63 6154.39 3219.81 6280.51 3225.04 6340.83" stroke="#4A3AFF" stroke-width="7" stroke-miterlimit="10"/>
<path d="M2695.61 61.0156C2896.3 526.168 3845.07 573.204 3678.72 1201.01C3553.11 1674.87 3292.36 2114.52 3082.56 2549.61C2919.5 2887.74 2719.83 3249.76 2683.97 3634.48C2625.43 4269.83 2443.81 4891.16 2406.01 5527.49C2396.14 5694.36 2383.49 5861.05 2504.88 5982.5C2620.71 6098.48 2689.12 6146.95 2683.89 6341.56" stroke="#4A3AFF" stroke-width="7" stroke-miterlimit="10"/>
<path d="M2143.65 80.0312C2170.48 645.538 2385.17 1172.63 2351.42 1745.32C2318.61 2301.85 2177.98 2844.01 2143.65 3402.07C2117.5 3833.92 1841.73 4182.2 1805.88 4609.47C1755.94 5205.14 2114.04 5750.63 2144.33 6340.82" stroke="#4A3AFF" stroke-width="7" stroke-miterlimit="10"/>
<path d="M1597.61 96.2734C1534.01 514.659 1403.59 913.117 1294.68 1320.1C1225.26 1580.42 1123.52 1887.4 1186.37 2159.66C1272.84 2534.42 1623.6 2809.63 1605.54 3218.86C1591.46 3539.31 1265.5 3546.67 1221.12 3844.87C1172.53 4171.43 1293.08 4562.97 1356.94 4875.08C1455.89 5359.35 1580.49 5843.71 1606.56 6340.28" stroke="#4A3AFF" stroke-width="7" stroke-miterlimit="10"/>
<path d="M1064.03 105.793C1012.74 509.727 893.125 894.272 797.041 1287.25C733.182 1548.37 656.67 1837.05 707.622 2108.68C781.266 2500.49 1090.52 2796.89 1068.84 3216.89C1052.81 3525.85 792.57 3679.17 759.333 3978.89C724.156 4296.92 816.865 4653.01 870.011 4961.79C948.717 5419.59 1044.46 5876.03 1070.53 6341.18" stroke="#4A3AFF" stroke-width="7" stroke-miterlimit="10"/>
<path d="M536.31 110.562C511.002 711.975 368.606 1304.41 400.241 1909.05C423.608 2353.2 542.468 2778.77 536.9 3226.51C531.923 3626.13 427.235 4012.29 420.571 4411.38C410.448 5057.67 533.273 5695.62 536.563 6341.28" stroke="#4A3AFF" stroke-width="7" stroke-miterlimit="10"/>
</svg>
