<svg width="6161" height="6161" viewBox="0 0 6161 6161" fill="none" xmlns="http://www.w3.org/2000/svg">
<path d="M6157.99 3080.5C6157.99 2295.46 5901.67 1493.82 5338.11 931.504C4754.33 348.966 3903.24 0.392893 3080.5 3.01469C1511.54 8.00858 3.01465 1505.18 3.01465 3080.5C3.01465 4706.64 1467.22 6153.12 3080.5 6157.99C3888.64 6160.36 4758.57 5862.47 5338.11 5284.06C5908.29 4716.25 6157.99 3870.91 6157.99 3080.5Z" stroke="#4A3AFF" stroke-width="5" stroke-miterlimit="10"/>
<path d="M3134.59 5896.68C1673 5906.92 335.761 4453.45 336.884 3098.98C338.133 1793.7 1742.54 293.535 3134.59 301.276C4666.46 309.766 5933.79 1574.72 5932.29 3098.98C5932.29 3781.89 5762.37 4600.52 5241.88 5121.5C4698.8 5665.09 3875.31 5891.44 3134.59 5896.68Z" stroke="#4A3AFF" stroke-width="5" stroke-miterlimit="10"/>
<path d="M5796.55 3148.05C5798.92 1793.71 4640.09 636.498 3278.63 630.006C2038.02 624.263 762.585 2007.45 760.587 3148.05C758.714 4329.48 1970.86 5676.08 3278.63 5665.97C3944.69 5660.73 4696.15 5466.22 5188.8 4972.94C5659.35 4502.02 5795.93 3752.69 5796.55 3148.05Z" stroke="#4A3AFF" stroke-width="5" stroke-miterlimit="10"/>
<path d="M3492.36 5458.84C2322.79 5460.59 1252.72 4294.02 1254.22 3220.58C1255.72 2178.73 2380.97 983.941 3492.36 982.443C4705.62 980.82 5732.37 2010.94 5730.62 3220.58C5728.75 4465.81 4767.55 5457.1 3492.36 5458.84Z" stroke="#4A3AFF" stroke-width="5" stroke-miterlimit="10"/>
<path d="M5714.53 3310.73C5715.28 2248.53 4820.37 1351.75 3756.05 1352.38C2756.65 1352.38 1798.32 2354.65 1797.7 3310.73C1797.07 4287.78 2720.07 5269.96 3756.05 5269.08C4858.08 5268.34 5713.78 4395.15 5714.53 3310.73Z" stroke="#4A3AFF" stroke-width="5" stroke-miterlimit="10"/>
<path d="M4049.59 5089.42C3161.67 5084.3 2371.02 4306.38 2371.02 3411.35C2371.02 2526.81 3167.17 1738.4 4049.59 1732.78C4972.71 1727.41 5728.28 2501.96 5728.28 3411.35C5728.16 4330.97 4978.2 5094.54 4049.59 5089.42Z" stroke="#4A3AFF" stroke-width="5" stroke-miterlimit="10"/>
<path d="M5751.74 3514.11C5751.74 2755.29 5105.53 2124.56 4353.45 2115.82C3593.13 2106.45 2955.16 2763.03 2955.16 3514.11C2955.16 4267.94 3594.13 4922.38 4354.08 4912.4C5105.28 4903.66 5751.62 4275.18 5751.74 3514.11Z" stroke="#4A3AFF" stroke-width="5" stroke-miterlimit="10"/>
<path d="M4645.96 4733.12C4048.94 4733.74 3526.46 4212.38 3526.83 3613.99C3526.83 3012.1 4034.96 2495.11 4645.96 2494.86C5248.1 2494.86 5765.47 3050.93 5764.97 3613.99C5764.59 4174.8 5234.87 4732.37 4645.96 4733.12Z" stroke="#4A3AFF" stroke-width="5" stroke-miterlimit="10"/>
<path d="M5748 3703.5C5748.75 3305.61 5349.11 2858.78 4908.78 2864.27C4462.07 2869.77 4070.18 3263.78 4069.43 3703.5C4068.68 4137.96 4468.94 4538.97 4908.78 4542.84C5344.87 4546.72 5747.25 4099.01 5748 3703.5Z" stroke="#4A3AFF" stroke-width="5" stroke-miterlimit="10"/>
<path d="M5121.75 4335.22C4826.49 4336.59 4561.94 4072.16 4562.18 3775.65C4562.18 3476.02 4814.13 3215.84 5121.75 3216.21C5419.39 3216.21 5681.94 3507.11 5681.32 3775.65C5680.69 4044.2 5408.9 4334.09 5121.75 4335.22Z" stroke="#4A3AFF" stroke-width="5" stroke-miterlimit="10"/>
<path d="M5543.21 3824.35C5543.21 3684.9 5416.87 3546.19 5263.43 3544.69C5226.63 3544.46 5190.16 3551.54 5156.12 3565.51C5122.07 3579.48 5091.14 3600.06 5065.12 3626.08C5039.09 3652.09 5018.49 3683.01 5004.51 3717.05C4990.52 3751.08 4983.43 3787.55 4983.65 3824.35C4983.65 3976.54 5114.74 4105.88 5263.43 4104.13C5409.62 4102.51 5542.59 3963.31 5543.21 3824.35Z" stroke="#4A3AFF" stroke-width="5" stroke-miterlimit="10"/>
<path d="M5315.27 3842.08C5186.05 5054.35 3220.08 4950.1 3080.5 6158" stroke="#4A3AFF" stroke-width="5" stroke-miterlimit="10"/>
<path d="M5315.3 3842.08C5544.64 4210.26 5406.68 4356.33 5184.83 4656.46C4978.96 4934.87 4968.97 5165.34 5106.55 5488.57" stroke="#4A3AFF" stroke-width="5" stroke-miterlimit="10"/>
<path d="M5315.27 3842.07C5442.84 3892.16 5582.1 3904.6 5716.53 3877.9C5725.35 3863.9 5729.13 3847.31 5727.24 3830.88C5725.36 3814.44 5717.92 3799.14 5706.16 3787.51C5681.19 3755.63 5684.15 3727.71 5715.03 3703.73C5842.94 3684.03 5973.66 3694.07 6097.06 3733.07" stroke="#4A3AFF" stroke-width="5" stroke-miterlimit="10"/>
<path d="M5315.27 3842.09C5720.27 3578.03 5648.24 3227.84 5594.43 2799.86C5542.11 2383.62 5579.57 2063.26 5899.43 1766.5" stroke="#4A3AFF" stroke-width="5" stroke-miterlimit="10"/>
<path d="M5315.23 3842.08C5582.53 3310.35 5125.47 2577 4914.85 2098.21C4680.01 1563.62 4420.83 960.604 4545.18 365.082" stroke="#4A3AFF" stroke-width="5" stroke-miterlimit="10"/>
<path d="M5315.26 3842.08C5259.08 3475.03 4983.17 3139.07 4759.69 2858.16C4507.63 2541.8 4233.96 2243.04 3963.67 1942.41C3470.02 1393.08 2811.83 775.083 2608.32 41.4805" stroke="#4A3AFF" stroke-width="5" stroke-miterlimit="10"/>
<path d="M5315.27 3842.07C4714.25 3231.56 3853.68 2818.32 3132.44 2367.99C2404.33 1913.92 1670.35 1456.61 1004.91 912.773" stroke="#4A3AFF" stroke-width="5" stroke-miterlimit="10"/>
<path d="M5315.31 3842.08C3541.1 3509.49 1829.32 2883 61.7324 2515.45" stroke="#4A3AFF" stroke-width="5" stroke-miterlimit="10"/>
<path d="M5315.31 3842.08C4946.14 4003.38 4499.94 4010.88 4104.29 4033.72C3668.58 4058.69 3232.11 4067.06 2795.9 4079.67C1967.16 4103.51 1102.97 4104.64 297.576 4324.49" stroke="#4A3AFF" stroke-width="5" stroke-miterlimit="10"/>
<path d="M5315.23 3842.08C4939.19 4400.52 3974.12 4559.95 3373.86 4757.34C2712.17 4974.82 1999.29 5208.54 1474.56 5686.95" stroke="#4A3AFF" stroke-width="5" stroke-miterlimit="10"/>
</svg>
